<svg width="1062" height="1251" viewBox="0 0 1062 1251" fill="none" xmlns="http://www.w3.org/2000/svg">
<path fill-rule="evenodd" clip-rule="evenodd" d="M967.445 0.609558H79.7292V406.187C79.7292 724.725 226.495 948.323 515.954 1070.8L523.658 1074.07L531.362 1070.8C820.809 948.297 967.575 724.647 967.575 406.187L967.445 0.609558V0.609558Z" fill="black"/>
<path fill-rule="evenodd" clip-rule="evenodd" d="M523.658 1030.9C257.272 915.263 121.181 707.267 119.3 412.348H928.017C926.136 707.241 790.044 915.212 523.658 1030.9Z" fill="white"/>
<path fill-rule="evenodd" clip-rule="evenodd" d="M1061.46 847.859C957.704 870.427 872.363 908.856 819.097 956.585L819.758 957.778L817.125 957.272L854.621 1041.02C779.941 1077.9 675.054 1105.61 533.878 1105.61H528.937C386.879 1105.61 281.707 1077.52 206.872 1040.25L241.501 959.827L243.317 956.585C189.985 908.856 104.774 870.427 0.769287 847.859L0.963832 980.592C50.5862 997.206 82.6604 1009.57 109.988 1034.27L97.5886 1058.99L72.4661 1108.03H72.972L68.3288 1117.28C155.421 1195.2 329.968 1250.67 528.937 1250.67H533.878C732.822 1250.67 907.174 1195.2 994.253 1117.28L952.646 1034.04C979.844 1009.46 1011.89 997.102 1061.28 980.592L1061.46 847.859V847.859Z" fill="black"/>
<path fill-rule="evenodd" clip-rule="evenodd" d="M136.926 1104.1C136.61 1104.66 136.304 1105.21 136.005 1105.78C132.827 1111.65 132.555 1114.89 136.238 1116.87C139.04 1118.38 141.854 1117.27 143.683 1113.88C146.212 1109.25 143.852 1106.2 141.128 1101.04C138.054 1095.19 135.655 1090.78 135.175 1086.83C134.76 1083.08 135.642 1079.07 137.86 1075C143.203 1065.09 152.516 1062.43 162.528 1067.85C173.54 1073.78 176.328 1082.68 170.673 1093.16C170.349 1093.74 169.947 1094.32 169.61 1094.88L157.729 1088.47L158.08 1087.79C160.751 1082.82 160.531 1079.42 157.613 1077.83C155.187 1076.5 152.503 1077.37 150.829 1080.49C148.599 1084.64 151.18 1087.96 154.344 1093.78C157.25 1099.02 159.818 1103.16 160.168 1107.68C160.401 1111.08 159.519 1114.86 157.353 1118.82C151.206 1130.2 141.699 1133.23 130.791 1127.33C119.313 1121.12 116.693 1112.16 122.957 1100.56C123.502 1099.55 124.138 1098.54 124.786 1097.55L136.926 1104.1V1104.1ZM206.677 1090.46L191.606 1127.88C188.247 1136.14 186.691 1140.47 191.542 1142.42C196.133 1144.3 197.897 1140.21 200.971 1132.58L201.295 1131.79L216.366 1094.35L230.36 1100L216.794 1133.62C216.158 1135.19 215.575 1136.68 214.978 1138.11C212.527 1144.24 210.348 1149.19 206.444 1152.4C201.295 1156.68 195.043 1156.86 186.639 1153.47C178.857 1150.33 174.798 1146.19 173.89 1139.73C173.099 1133.88 175.783 1126.81 179.752 1116.96L192.722 1084.83L206.677 1090.46ZM246.274 1160.9L251.086 1144.89C251.423 1144.97 251.747 1145.1 252.071 1145.19C258.491 1147.11 260.722 1150.31 259.14 1155.55C257.48 1161.16 253.563 1163.1 247.506 1161.27C247.104 1161.16 246.663 1160.98 246.274 1160.9V1160.9ZM228.57 1167.43L245.677 1172.6C253.291 1174.88 258.699 1175.97 263.861 1173.08C268.167 1170.69 271.747 1166.24 273.446 1160.59C275.482 1153.87 274.133 1148.25 269.49 1143.79C275.339 1141.29 278.517 1137.94 280.125 1132.62C281.928 1126.64 280.981 1121.53 277.311 1117.58C274.029 1113.99 269.14 1112.44 262.655 1110.43L247.169 1105.78L228.57 1167.43V1167.43ZM254.328 1134.26L258.53 1120.33C259.036 1120.41 259.542 1120.56 260.035 1120.65C265.028 1122.2 266.987 1125.46 265.703 1129.74C264.172 1134.82 260.787 1136.2 255.236 1134.53C254.912 1134.43 254.652 1134.32 254.328 1134.26V1134.26ZM366.4 1174.93C366.288 1176.01 366.115 1177.09 365.881 1178.15C363.067 1193.48 355.129 1199.76 341.096 1197.17C332.821 1195.68 327.504 1191.91 324.91 1185.7C322.666 1180.3 323.755 1172.06 325.934 1160.11C328.126 1148.12 330.059 1140.07 334.053 1135.87C338.606 1131 344.909 1129.3 352.989 1130.77C366.919 1133.3 372.392 1142.35 369.578 1157.64C369.533 1157.85 369.494 1158.07 369.461 1158.28L355.051 1155.62C356.491 1147.41 355.687 1143.64 351.057 1142.78C344.896 1141.64 343.716 1147.72 341.161 1161.68C341.096 1162.08 341.031 1162.44 340.94 1162.84C338.23 1177.67 337.049 1184.18 343.262 1185.31C348.151 1186.19 349.876 1182.92 351.329 1175.02L351.835 1172.26L366.4 1174.93V1174.93ZM402.793 1167.06L404.635 1151.53C405.335 1151.61 405.932 1151.59 406.502 1151.69C412.637 1152.4 414.764 1154.75 414.129 1160.28C413.415 1166.2 410.757 1168.15 404.661 1167.37C404.051 1167.3 403.455 1167.14 402.793 1167.06V1167.06ZM383.559 1202.65L398.37 1204.42L401.392 1178.81L404.44 1179.19C410.069 1179.85 411.185 1182.8 410.303 1190.21C410.082 1191.86 409.68 1193.93 409.356 1196.77C408.959 1199.75 408.972 1202.76 409.395 1205.73L426.917 1207.81C423.298 1204.11 424.582 1198.61 425.309 1190.38C425.931 1182.83 426.333 1178.58 419.745 1174.67C425.542 1172.12 428.603 1167.55 429.472 1160.26C430.185 1154.31 429.005 1149.74 425.62 1146.25C422.17 1142.74 416.489 1141.72 407.994 1140.7L391.172 1138.73L383.559 1202.65V1202.65ZM464.088 1145.93L461.689 1186.2C461.17 1195.05 461.079 1199.7 466.293 1199.98C471.26 1200.27 471.598 1195.85 472.078 1187.67C472.102 1187.38 472.115 1187.1 472.116 1186.81L474.516 1146.55L489.561 1147.44L487.408 1183.61C487.33 1185.31 487.213 1186.9 487.122 1188.45C486.746 1195.03 486.241 1200.43 483.595 1204.71C480.08 1210.43 474.218 1212.56 465.178 1212.05C456.786 1211.52 451.624 1208.89 448.719 1203.06C446.086 1197.74 446.384 1190.25 447.02 1179.63L449.082 1145.02L464.088 1145.93V1145.93ZM549.235 1187.63C549.313 1188.74 549.313 1189.78 549.274 1190.9C549.235 1206.45 542.568 1214.05 528.25 1214.02C519.858 1213.97 513.957 1211.21 510.286 1205.57C507.148 1200.68 506.746 1192.39 506.772 1180.18C506.811 1168.02 507.29 1159.74 510.481 1154.85C514.074 1149.33 520.001 1146.54 528.211 1146.54C542.348 1146.57 549.313 1154.46 549.274 1170.04V1170.65L534.657 1170.63C534.579 1162.31 533.152 1158.72 528.444 1158.67C522.193 1158.67 522.076 1164.85 522.037 1179.03V1180.27C521.998 1195.32 521.946 1201.91 528.276 1201.93C533.256 1201.93 534.371 1198.46 534.41 1190.38V1187.56L549.235 1187.63ZM567.315 1147.63L602.268 1145.85L602.904 1158.32L582.93 1159.35L583.488 1171.13L601.97 1170.2L602.631 1183.12L584.162 1184.05L584.889 1198.08L604.901 1197.04L605.575 1210.12L570.583 1211.95L567.315 1147.63V1147.63ZM659.867 1204.93L651.099 1141.14L666.027 1139.1L673.018 1189.98L690.929 1187.52L692.706 1200.42L659.867 1204.93V1204.93ZM713.056 1131.26L721.045 1170.83C722.796 1179.55 723.899 1184.06 728.996 1183.01C733.885 1182.05 733.068 1177.64 731.421 1169.61C731.399 1169.32 731.347 1169.04 731.265 1168.76L723.302 1129.24L738.049 1126.26L745.234 1161.74L746.207 1166.53C747.504 1172.99 748.424 1178.33 746.933 1183.17C745.026 1189.57 739.89 1193.15 730.98 1194.92C722.77 1196.59 717.102 1195.37 712.77 1190.46C708.905 1186.05 707.258 1178.68 705.144 1168.24L698.283 1134.27L713.056 1131.26ZM755.208 1122.47L775.376 1116.44L788.695 1141.03C789.162 1141.96 791.199 1146.66 794.973 1154.88C793.676 1145.79 792.898 1140.69 792.807 1139.52L790.472 1111.91L810.472 1105.93L828.889 1167.62L815.296 1171.69L802.288 1123.69L806.762 1174.22L795.751 1177.51L771.77 1132.78L787.217 1180.07L773.599 1184.1L755.208 1122.47V1122.47ZM826.438 1099.72L858.667 1086.15L863.531 1097.64L845.049 1105.43L849.692 1116.35L866.722 1109.12L871.728 1121.03L854.673 1128.23L860.133 1141.17L878.628 1133.39L883.686 1145.48L851.417 1159.06L826.438 1099.72V1099.72ZM873.012 1079.38L886.539 1071.46L917.369 1099.47C910.118 1088.95 904.71 1080.71 901.182 1074.62L896.072 1065.91L907.706 1059.15L940.143 1114.75L926.512 1122.68L895.035 1093.7C901 1101.77 906.537 1110.14 911.623 1118.78L917.109 1128.19L905.423 1135L873.012 1079.38Z" fill="white"/>
<path fill-rule="evenodd" clip-rule="evenodd" d="M799.811 599.034V562.356H792.158V519.906H774.844V483.993H740.668V452.126H706.519V420.804L690.994 426.537C669.711 434.591 651.294 441.413 608.014 441.413C556.614 441.413 533.191 453.397 522.621 462.281C512.18 453.397 488.938 441.413 437.695 441.413C394.363 441.413 375.946 434.565 354.623 426.537L338.995 420.752V452.126H304.884V483.993H270.8V519.906H254.056V562.356H247.26V599.034H254.043V720.328H247.26V756.954H254.043V830.973H477.875C481.689 839.684 487.961 847.095 495.922 852.296C503.883 857.498 513.189 860.265 522.699 860.259C532.219 860.252 541.532 857.481 549.508 852.282C557.483 847.084 563.778 839.681 567.626 830.973H792.158V756.954H799.811V720.328H792.158V599.034H799.811V599.034Z" fill="black"/>
<path fill-rule="evenodd" clip-rule="evenodd" d="M515.851 766.863L515.747 766.682C496.344 745.1 475.618 737.681 456.112 737.681L435.775 739.601C413.753 741.909 383.611 745.1 369.15 745.1H338.995V469.687H322.497V763.984H369.163C382.729 763.984 413.532 760.767 433.972 758.692L456.125 756.669C474.62 756.669 495.618 753.699 515.864 768.446V766.863H515.851V766.863ZM706.519 469.687V745.113H676.572C662.02 745.113 631.956 741.922 609.791 739.614L589.584 737.694C569.973 737.694 549.235 745.113 529.936 766.695L529.002 767.68V769.029C549.455 753.621 570.829 756.669 589.584 756.669L611.658 758.692C632.125 760.767 662.954 763.984 676.572 763.984H723.172V469.687H706.519Z" fill="white"/>
<path fill-rule="evenodd" clip-rule="evenodd" d="M456.112 720.159L433.959 722.182C413.519 724.284 382.716 727.474 369.15 727.474H356.595V446.004C375.946 453.008 396.931 458.961 437.682 458.961C502.557 458.961 514.592 479.012 514.722 479.194L515.838 481.282V739.458C495.579 723.376 474.555 720.159 456.112 720.159ZM689.049 727.474H676.572C662.954 727.474 632.124 724.284 611.658 722.182L589.584 720.159C570.829 720.159 549.507 723.531 529.002 740.042V481.58L530.364 479.337C530.454 479.116 542.905 458.974 608.001 458.974C648.739 458.974 669.711 453.021 689.049 446.017V727.474V727.474Z" fill="white"/>
<path fill-rule="evenodd" clip-rule="evenodd" d="M442.558 539.503C414.79 539.828 392.262 537.973 375.349 533.978V542.992C392.664 546.818 415.257 548.608 442.675 548.219L458.991 548.556C474.386 549.438 486.474 551.617 496.059 555.054V545.871C486.176 542.681 474.257 540.645 459.445 539.75L442.558 539.503ZM443.414 574.522C414.025 575.339 390.225 574.431 375.349 572.057V580.981C394.817 583.847 422.702 583.847 443.778 583.302C443.778 583.211 458.356 583.302 458.356 583.302C474.555 584.106 486.318 586.194 495.903 590.034L495.942 580.734C486.059 577.258 474.256 575.352 458.771 574.522H443.414V574.522ZM444.426 609.799C420.899 610.837 392.495 611.836 375.349 610.305V619.125C393.182 620.59 421.353 619.605 444.828 618.554L457.59 618.256C469.613 618.723 483.258 619.994 495.773 625.35V615.882C483.05 611.187 469.717 609.968 457.941 609.553L444.426 609.799V609.799ZM445.308 646.491L437.682 647.049C417.812 648.398 391.263 650.291 375.349 649.993V658.76C391.898 659.059 418.344 657.191 438.265 655.777L445.918 655.22L457.02 654.766C469.626 655.025 482.92 656.205 495.553 662.042L495.566 652.522C482.518 647.386 469.108 646.244 457.188 645.933L445.308 646.491V646.491ZM456.449 682.417L434.841 684.414C416.891 686.243 390.848 688.98 375.362 689.551V698.344C391.159 697.734 417.54 695.024 435.671 693.156L456.449 691.159C468.252 691.159 481.844 692.145 495.358 698.759L495.423 689.135C481.377 683.325 467.473 682.417 456.449 682.417V682.417ZM441.573 504.446C418.681 504.446 402.884 502.501 390.576 499.816V477.287C385.424 476.477 380.378 475.098 375.531 473.176V505.004C390.251 509.426 409.032 513.201 441.56 513.201C463.647 513.201 481.87 515.535 496.227 520.049V510.996C481.545 506.742 463.232 504.446 441.573 504.446V504.446ZM604.577 514.303C637.248 514.303 656.015 510.503 670.852 506.041V496.872C656.404 501.45 637.974 505.561 604.577 505.561C590.401 505.561 577.872 506.599 566.523 508.415V482.618C563.654 483.213 560.807 483.914 557.989 484.719C555.473 485.355 553.061 486.12 550.895 486.872V520.879C565.149 516.612 583.099 514.303 604.577 514.303V514.303ZM603.708 540.567L586.678 540.904C572.489 541.708 560.739 543.667 550.895 546.637V555.871C560.428 552.629 572.308 550.515 587.132 549.581L603.591 549.347C630.957 549.685 653.551 547.895 670.865 544.03V535.068C653.94 539.036 631.476 540.943 603.708 540.567V540.567ZM602.787 575.637H587.431C572.334 576.389 560.713 578.296 550.882 581.603V590.954C560.479 587.206 572.036 585.209 587.962 584.366H602.476C623.577 584.962 651.449 584.885 670.852 582.057V573.277C655.989 575.585 632.163 576.389 602.787 575.637V575.637ZM601.84 610.876L588.261 610.604C576.64 611.083 563.501 612.251 550.882 616.881V626.271C563.203 621.083 576.757 619.877 588.572 619.384L601.399 619.657C624.861 620.694 652.993 621.68 670.839 620.253V611.421C653.732 612.977 625.367 611.991 601.84 610.876ZM608.649 648.138L600.997 647.606L589.013 647.049C577.288 647.321 563.981 648.488 550.895 653.559V663.027C563.774 657.256 577.405 656.114 589.221 655.803L600.297 656.361L608.091 656.893C627.987 658.254 654.497 660.187 670.852 659.837V651.095C654.938 651.406 628.571 649.552 608.649 648.138V648.138ZM611.451 685.478L589.817 683.481C578.819 683.481 564.889 684.363 550.895 690.199V699.745C564.487 693.26 578.131 692.248 589.817 692.248L610.452 694.22C628.662 696.113 655.055 698.824 670.852 699.485V690.666C655.366 690.069 629.336 687.307 611.451 685.478Z" fill="black"/>
<path fill-rule="evenodd" clip-rule="evenodd" d="M456.112 774.165L435.775 776.111C413.753 778.419 383.611 781.506 369.15 781.506H304.884V501.554H288.335V797.55H369.15C382.716 797.55 413.519 794.385 433.959 792.258L456.112 790.235C470.69 790.235 486.993 786.007 503.088 791.039L503.607 789.742C487.849 777.615 471.598 774.165 456.112 774.165ZM740.668 501.554V781.506H676.572C662.02 781.506 631.956 778.419 609.791 776.111L589.584 774.165C573.307 774.165 556.29 777.862 539.948 791.415L540.091 791.817C557.056 785.462 574.176 790.222 589.584 790.222L611.658 792.245C632.125 794.372 662.954 797.537 676.572 797.537H757.296V501.541L740.668 501.554V501.554ZM512.037 366.24L472.765 356.694L451.689 391.233L430.652 356.694L391.432 366.24L400.913 326.955L366.4 305.892L400.913 284.92L391.432 245.557L430.652 255.154L451.689 220.603L472.765 255.154L512.037 245.557L502.427 284.92L537.004 305.892L502.427 326.955L512.037 366.24ZM400.549 89.4784L417.644 115.042L448.304 112.448L438.901 141.747L460.094 164.119L431.288 175.092L426.995 205.636L400.549 189.955L374.078 205.636L369.707 175.092L340.901 164.119L362.081 141.811L352.756 112.448L383.481 115.042L400.549 89.4784V89.4784ZM525.591 19.4287L539.417 40.2063L564.189 38.0403L556.653 61.8528L573.709 79.9845L550.545 88.778L547.017 113.55L525.591 100.801L504.074 113.55L500.598 88.778L477.291 79.9845L494.476 61.8528L486.876 38.0403L511.687 40.2063L525.591 19.4287ZM635.536 118.103L649.037 136.675L671.851 139.062L662.616 160.047L671.851 180.993L649.037 183.457L635.536 201.939L622.021 183.457L599.168 181.032L608.533 160.047L599.168 139.101L622.021 136.675L635.536 118.103ZM587.392 223.767L600.154 246.568L625.782 251.639L608.001 270.835L611.204 296.839L587.392 285.841L563.631 296.839L566.757 270.835L548.975 251.639L574.604 246.568L587.392 223.767V223.767Z" fill="white"/>
</svg>
