<svg width="300" height="300" viewBox="0 0 102 132" fill="none" xmlns="http://www.w3.org/2000/svg">
<path d="M51.0664 22.3945L63.6562 15.2812L76.2422 22.3945L63.6562 29.7812V87.2422C63.6562 97.9141 55.1758 106.395 44.7734 106.395C34.1055 106.395 25.6211 97.9141 25.6211 87.2422V36.8984L38.207 29.7852L51.0664 37.1719L38.4805 44.2852V87.2461C38.4805 90.8008 41.2187 93.5391 44.7734 93.5391C48.0586 93.5391 51.0664 90.8047 51.0664 87.2461V22.3945Z" fill="white"/>
<path d="M13.0352 58.7852V87.2422C13.0352 104.754 27.2656 118.98 44.7734 118.98C62.0117 118.98 76.2383 104.754 76.2383 87.2422V7.89453L88.8281 0.78125L101.688 7.89453L88.8281 15.2812V87.2422C88.8281 111.867 69.1289 131.566 44.7734 131.566C20.1484 131.566 0.449219 111.867 0.449219 87.2422V51.6719L13.0352 44.2852L25.6211 51.6719L13.0352 58.7852Z" fill="white"/>
</svg>
